<?xml version="1.0" encoding="iso-8859-1"?>
<!-- Generator: Adobe Illustrator 19.0.0, SVG Export Plug-In . SVG Version: 6.00 Build 0)  -->
<svg version="1.1" id="Capa_1" xmlns="http://www.w3.org/2000/svg" xmlns:xlink="http://www.w3.org/1999/xlink" x="0px" y="0px"
	 viewBox="0 0 432.8 432.8" style="enable-background:new 0 0 432.8 432.8;" xml:space="preserve">
<path style="fill:#F4A23F;" d="M176,424c-22.4,0-35.2-12.8-35.2-34.4V272H176l0.8,6.4c4,22.4,24.8,37.6,47.2,33.6
	c17.6-3.2,30.4-16,33.6-33.6l0.8-6.4h35.2v117.6c0,21.6-12.8,34.4-35.2,34.4H176z"/>
<polygon style="fill:#A3CB6F;" points="184,64 188,8 245.6,8 250.4,64 "/>
<circle style="fill:#FBCF4C;" cx="216.8" cy="272" r="40.8"/>
<path style="fill:#F4A23F;" d="M258.4,272l-1.6-6.4c-4-22.4-24.8-37.6-47.2-33.6c-17.6,3.2-30.4,16-33.6,33.6l-0.8,6.4H140v-76.8
	l38.4-69.6l4.8-61.6h66.4l4.8,61.6l38.4,69.6V272H258.4z"/>
<path style="fill:#E28539;" d="M264.8,272v117.6c0,21.6-12.8,34.4-35.2,34.4h28c22.4,0,35.2-12.8,35.2-34.4V272H264.8z"/>
<polygon style="fill:#92B762;" points="245.6,8 217.6,8 222.4,64 250.4,64 "/>
<path style="fill:#EDB248;" d="M216.8,231.2c-4.8,0-9.6,0.8-14.4,2.4c21.6,8,32,31.2,24.8,52c-4,11.2-12.8,20.8-24.8,24.8
	c4.8,1.6,9.6,2.4,14.4,2.4c22.4,0,40.8-18.4,40.8-40.8S239.2,231.2,216.8,231.2z"/>
<polygon style="fill:#E28539;" points="255.2,125.6 250.4,64 222.4,64 227.2,125.6 264.8,195.2 264.8,272 292.8,272 292.8,195.2 "/>
<path style="fill:#4A2328;" d="M263.2,124l-8.8-108h0.8c4.8,0,8-3.2,8-8s-3.2-8-8-8h-76.8c-4.8,0-8,3.2-8,8s3.2,8,8,8h0.8l-8.8,108
	l-37.6,68c-0.8,0.8-0.8,2.4-0.8,4v194.4c0,26.4,16,42.4,43.2,42.4h82.4c27.2,0,43.2-16,43.2-42.4V195.2c0-1.6,0-2.4-0.8-4L263.2,124
	z M195.2,16h42.4l3.2,40H192L195.2,16z M284.8,389.6c0,17.6-8.8,26.4-27.2,26.4H176c-18.4,0-27.2-8.8-27.2-26.4V280h20
	c5.6,26.4,31.2,44,57.6,38.4c19.2-4,34.4-19.2,38.4-38.4h20V389.6z M184,272c0-18.4,15.2-32.8,33.6-32.8s32.8,15.2,32.8,33.6
	s-15.2,32.8-32.8,32.8C198.4,305.6,184,290.4,184,272L184,272z M284.8,264h-20c-5.6-26.4-31.2-44-57.6-38.4
	c-19.2,4-34.4,19.2-38.4,38.4h-20v-66.4l36.8-67.2c0.8-0.8,0.8-2.4,0.8-3.2l4.8-54.4h51.2l4,54.4c0,0.8,0.8,2.4,0.8,3.2l37.6,67.2
	V264z"/>
<g>
</g>
<g>
</g>
<g>
</g>
<g>
</g>
<g>
</g>
<g>
</g>
<g>
</g>
<g>
</g>
<g>
</g>
<g>
</g>
<g>
</g>
<g>
</g>
<g>
</g>
<g>
</g>
<g>
</g>
</svg>
